# AST/ASF file generated using VICON BodyLanguage
# -----------------------------------------------
:version 1.10
:name VICON
:units
  mass 1.0
  length 0.45
  angle deg
:documentation
   .ast/.asf automatically generated from VICON data using
   VICON BodyBuilder and BodyLanguage model FoxedUp or BRILLIANT.MOD
:root
   order TX TY TZ RX RY RZ
   axis XYZ
   position 0 0 0  
   orientation 0 0 0 
:bonedata
  begin
     id 1 
     name lhipjoint
     direction 0.541323 -0.757556 0.364798 
     length 2.47576 
     axis 0 0 0  XYZ
  end
  begin
     id 2 
     name lfemur
     direction 0.34202 -0.939693 0  
     length 7.46493  
     axis 0 0 20  XYZ
    dof rx ry rz
    limits (-160.0 20.0)
           (-70.0 70.0)
           (-60.0 70.0)
  end
  begin
     id 3 
     name ltibia
     direction 0.34202 -0.939693 0   
     length 7.73805   
     axis 0 0 20   XYZ
    dof rx
    limits (-10.0 170.0)
  end
  begin
     id 4 
     name lfoot
     direction 0.107174 -0.294458 0.949636   
     length 2.25864   
     axis -90 7.62852e-016 20   XYZ
    dof rx rz
    limits (-45.0 90.0)
           (-70.0 20.0)
  end
  begin
     id 5 
     name ltoes
     direction 1.53606e-011 -4.21934e-011 1   
     length 1.12451   
     axis -90 7.62852e-016 20   XYZ
    dof rx
    limits (-90.0 20.0)
  end
  begin
     id 6 
     name rhipjoint
     direction -0.524745 -0.766967 0.36933   
     length 2.44538  
     axis 0 0 0  XYZ 
  end
  begin
     id 7 
     name rfemur
     direction -0.34202 -0.939693 0   
     length 7.61604   
     axis 0 0 -20   XYZ
    dof rx ry rz
    limits (-160.0 20.0)
           (-70.0 70.0)
           (-70.0 60.0)
  end
  begin
     id 8 
     name rtibia
     direction -0.34202 -0.939693 0   
     length 7.61056   
     axis 0 0 -20   XYZ
    dof rx
    limits (-10.0 170.0)
 end
 begin
     id 9 
     name rfoot
     direction -0.12616 -0.346623 0.929482   
     length 2.46372  
     axis -90 -7.62852e-016 -20   XYZ
    dof rx rz
    limits (-45.0 90.0)
           (-20.0 70.0)
  end
  begin
     id 10 
     name rtoes
     direction -1.53531e-011 -4.22004e-011 1   
     length 1.21611   
     axis -90 -7.62852e-016 -20   XYZ
    dof rx
    limits (-90.0 20.0)
  end
  begin
     id 11 
     name lowerback
     direction -0.000778023 0.997293 -0.0735223   
     length 2.06139   
     axis 0 0 0   XYZ
    dof rx ry rz
    limits (-20.0 45.0)
           (-30.0 30.0)
           (-30.0 30.0)
  end
  begin
     id 12 
     name upperback
     direction 0.0222598 0.999722 -0.0078355   
     length 2.06383   
     axis 0 0 0   XYZ
    dof rx ry rz
    limits (-20.0 45.0)
           (-30.0 30.0)
           (-30.0 30.0)
  end
  begin
     id 13 
     name thorax
     direction 0.0219654 0.999405 0.0265994   
     length 2.07163   
     axis 0 0 0   XYZ
    dof rx ry rz
    limits (-20.0 45.0)
           (-30.0 30.0)
           (-30.0 30.0)
  end
  begin
     id 14 
     name lowerneck
     direction 0.0213282 0.988147 0.15202   
     length 1.75969   
     axis 0 0 0   XYZ
    dof rx ry rz
    limits (-20.0 45.0)
           (-30.0 30.0)
           (-30.0 30.0)
  end
  begin
     id 15 
     name upperneck
     direction -0.0546456 0.982624 -0.177379   
     length 1.79244   
     axis 0 0 0   XYZ
    dof rx ry rz
    limits (-20.0 45.0)
           (-30.0 30.0)
           (-30.0 30.0)
  end
  begin
     id 16
     name head
     direction -0.0199987 0.996855 -0.076686  
     length 1.80555  
     axis 0 0 0   XYZ
    dof rx ry rz
    limits (-20.0 45.0)
           (-30.0 30.0)
           (-30.0 30.0)
  end
  begin
     id 17 
     name lclavicle
     direction 0.929565 0.363219 -0.063096  
     length 3.55722  
     axis 0 0 0   XYZ
    dof ry rz
    limits (-20.0 10.0)
           (0.0 20.0)
  end
  begin
     id 18 
     name lhumerus
     direction 1 -4.48993e-011 -2.36203e-027   
     length 4.92785   
     axis 180 -30 -90   XYZ
    dof rx ry rz
    limits (-60.0 90.0)
           (-90.0 90.0)
           (-90.0 90.0)
  end
  begin
     id 19
     name lradius
     direction 1 -4.48947e-011 2.02997e-027   
     length 3.44052   
     axis 180 -30 -90   XYZ
    dof rx
    limits (-10.0 170.0)
  end
  begin
     id 20
     name lwrist
     direction 1 -4.48962e-011 1.45991e-027   
     length 1.72026   
     axis 1.49639e-024 90 90   XYZ
    dof ry
    limits (-180.0 0.0)
 end
  begin
     id 21 
     name lhand
     direction 1 -4.48984e-011 2.91906e-027   
     length 0.654326   
     axis -1.863e-015 90 90   XYZ
    dof rx rz
    limits (-90.0 90.0)
           (-45.0 45.0)
  end
  begin
     id 22 
     name lfingers
     direction 1 -4.48961e-011 5.83968e-027   
     length 0.527534   
     axis -3.72598e-015 90 90   XYZ
    dof rx
    limits (0.0 90.0)
  end
  begin
     id 23
     name lthumb
     direction 0.707107 -6.34963e-011 0.707107   
     length 0.757437   
     axis -90 45 -6.68868e-015   XYZ
    dof rx rz
    limits (-45.0 45.0)
           (-45.0 45.0)
  end
  begin
     id 24 
     name rclavicle
     direction -0.902944 0.422599 -0.0781198   
     length 3.54432  
     axis 0 0 0   XYZ 
    dof ry rz
    limits (-10.0 20.0)
           (-20.0 0.0)
  end
  begin
     id 25 
     name rhumerus
     direction -1 -4.48953e-011 -4.75835e-028  
     length 5.09181   
     axis 180 30 90   XYZ
    dof rx ry rz
    limits (-90.0 60.0)
           (-90.0 90.0)
           (-90.0 90.0)
  end
  begin
     id 26 
     name rradius
     direction -1 -4.48986e-011 -3.25889e-027   
     length 3.49865   
     axis 180 30 90   XYZ
    dof rx
    limits (-10.0 170.0)
  end
  begin
     id 27 
     name rwrist
     direction -1 -4.48963e-011 1.45989e-027   
     length 1.74933   
     axis 1.49639e-024 -90 -90   XYZ
    dof ry
    limits (-180.0 0.0)
  end
  begin
     id 28
     name rhand
     direction -1 -4.49003e-011 2.91844e-027   
     length 0.66641   
     axis -1.863e-015 -90 -90   XYZ
    dof rx rz
    limits (-90.0 90.0)
           (-45.0 45.0)
  end
  begin
     id 29
     name rfingers
     direction -1 -4.48973e-011 5.83886e-027   
     length 0.537277   
     axis -3.72598e-015 -90 -90   XYZ
    dof rx
    limits (0.0 90.0)
  end
  begin
     id 30
     name rthumb
     direction -0.707107 -6.34976e-011 0.707107   
     length 0.771425   
     axis -90 -45 6.68868e-015   XYZ
    dof rx rz
    limits (-45.0 45.0)
           (-45.0 45.0)
  end
:hierarchy
  begin
    root lhipjoint rhipjoint lowerback
    lhipjoint lfemur
    lfemur ltibia
    ltibia lfoot
    lfoot ltoes
    rhipjoint rfemur
    rfemur rtibia
    rtibia rfoot
    rfoot rtoes
    lowerback upperback
    upperback thorax
    thorax lowerneck lclavicle rclavicle
    lowerneck upperneck
    upperneck head
    lclavicle lhumerus
    lhumerus lradius
    lradius lwrist
    lwrist lhand lthumb
    lhand lfingers
    rclavicle rhumerus
    rhumerus rradius
    rradius rwrist
    rwrist rhand rthumb
    rhand rfingers
  end

#!OML:ASF H:\LiuWeirdWalks\Patient Classification 1\Patient 1\Session 1\male.ASF
:FULLY-SPECIFIED
:DEGREES
64
root -0.579023 17.726 -30.0723 1.7462 1.10902 0.876804
lowerback 5.83814 -1.51973 -3.79408
upperback -3.03935 -2.25372 1.79229
thorax -6.23831 -0.912038 4.25849
lowerneck -21.5203 -0.664842 6.29323
upperneck 30.5685 -0.470359 -8.56355
head 13.9629 -0.698766 -4.65265
rclavicle 3.05631e-015 0
rhumerus -34.7655 -10.43 -76.5282
rradius 26.2877
rwrist -4.23505
rhand -17.7834 -2.96648
rfingers 7.12502
rthumb 8.47941 -32.7762
lclavicle 3.05631e-015 0
lhumerus -36.4536 3.49223 85.7094
lradius 26.6565
lwrist 6.61909
lhand -11.4885 -0.0529645
lfingers 7.12502
lthumb 14.5499 29.4168
rfemur -10.4678 -3.94043 17.7153
rtibia 35.2698
rfoot -20.9919 -23.8282
rtoes -0.391458
lfemur -6.52585 -3.262 -17.5492
ltibia 26.2708
lfoot -15.3839 14.3036
ltoes -9.14656
65
root -0.59122 17.7199 -30.0485 1.75033 1.13681 0.913701
lowerback 5.7272 -1.64344 -3.74833
upperback -2.99273 -2.41257 1.7677
thorax -6.11175 -0.997562 4.21673
lowerneck -21.5602 -0.42459 6.45298
upperneck 30.5242 -0.144517 -8.67039
head 13.986 -0.554281 -4.66806
rclavicle 4.00054e-015 -8.74653e-015
rhumerus -34.5896 -10.0543 -76.8609
rradius 26.3576
rwrist -4.31707
rhand -17.7901 -2.96256
rfingers 7.12502
rthumb 8.47294 -32.7726
lclavicle 4.00054e-015 -8.74653e-015
lhumerus -36.4192 3.79168 85.5251
lradius 26.612
lwrist 6.67623
lhand -11.4848 -0.0521547
lfingers 7.12502
lthumb 14.5535 29.4173
rfemur -10.4114 -3.91581 17.7276
rtibia 35.3524
rfoot -21.2377 -23.8141
rtoes -0.325283
lfemur -6.44276 -3.29638 -17.5558
ltibia 26.2832
lfoot -15.5195 14.3649
ltoes -9.20379
66
root -0.603684 17.7139 -30.0238 1.76733 1.17457 0.964484
lowerback 5.60769 -1.77762 -3.70857
upperback -2.94882 -2.586 1.73799
thorax -5.98225 -1.09017 4.17345
lowerneck -21.6034 -0.18214 6.61019
upperneck 30.4835 0.184685 -8.77543
head 14.0129 -0.408462 -4.68182
rclavicle 9.19379e-015 -7.15625e-015
rhumerus -34.4139 -9.67053 -77.2012
rradius 26.4151
rwrist -4.38786
rhand -17.7914 -2.93916
rfingers 7.12502
rthumb 8.47162 -32.7492
lclavicle 9.19379e-015 -7.15625e-015
lhumerus -36.3844 4.11709 85.3291
lradius 26.5605
lwrist 6.71195
lhand -11.5072 -0.0301496
lfingers 7.12502
lthumb 14.5318 29.4409
rfemur -10.3655 -3.9092 17.7245
rtibia 35.4355
rfoot -21.4689 -23.7871
rtoes -0.258106
lfemur -6.37152 -3.3361 -17.5754
ltibia 26.2914
lfoot -15.6418 14.423
ltoes -9.28367
67
root -0.616683 17.7082 -29.9989 1.80532 1.20819 1.01361
lowerback 5.47092 -1.9609 -3.61859
upperback -2.91222 -2.82116 1.69851
thorax -5.84781 -1.21553 4.09615
lowerneck -21.6506 0.145208 6.83383
upperneck 30.4345 0.62415 -8.91379
head 14.0507 -0.211847 -4.70154
rclavicle 2.55563e-014 -1.47101e-014
rhumerus -34.2155 -9.18222 -77.6198
rradius 26.4543
rwrist -4.44548
rhand -17.7915 -2.91465
rfingers 7.12502
rthumb 8.47154 -32.7247
lclavicle 2.55563e-014 -1.47101e-014
lhumerus -36.3749 4.54987 85.0555
lradius 26.5149
lwrist 6.75255
lhand -11.5418 -0.0267855
lfingers 7.12502
lthumb 14.4985 29.4466
rfemur -10.3438 -3.90656 17.7248
rtibia 35.5181
rfoot -21.6778 -23.7462
rtoes -0.16506
lfemur -6.32465 -3.37673 -17.5901
ltibia 26.3003
lfoot -15.7535 14.4835
ltoes -9.37705
68
root -0.630494 17.7027 -29.9734 1.86021 1.24137 1.0547
lowerback 5.36385 -1.92043 -3.74788
upperback -2.87162 -2.77288 1.70547
thorax -5.74245 -1.19021 4.16514
lowerneck -21.7097 0.0763063 6.7384
upperneck 30.4053 0.532542 -8.84839
head 14.0405 -0.254647 -4.67293
rclavicle 8.4235e-015 6.75868e-015
rhumerus -34.1563 -9.19084 -77.6804
rradius 26.5526
rwrist -4.53919
rhand -17.7855 -2.90175
rfingers 7.12502
rthumb 8.47739 -32.7116
lclavicle 8.4235e-015 6.75868e-015
lhumerus -36.2186 4.48938 85.1298
lradius 26.4102
lwrist 6.74567
lhand -11.5808 0.00546733
lfingers 7.12502
lthumb 14.461 29.4816
rfemur -10.3382 -3.90209 17.7385
rtibia 35.5965
rfoot -21.8673 -23.7011
rtoes -0.0512408
lfemur -6.29888 -3.40893 -17.5907
ltibia 26.3158
lfoot -15.8599 14.5374
ltoes -9.48343
69
root -0.645142 17.6974 -29.9474 1.92674 1.27394 1.08647
lowerback 5.18955 -1.9098 -3.89765
upperback -2.84289 -2.76163 1.74814
thorax -5.60527 -1.18267 4.28388
lowerneck -21.6516 0.106319 6.79127
upperneck 30.3134 0.585027 -8.932
head 13.9938 -0.237375 -4.70101
rclavicle 2.26366e-014 9.93923e-015
rhumerus -34.1163 -9.10374 -77.7277
rradius 26.6317
rwrist -4.60944
rhand -17.7732 -2.89764
rfingers 7.12502
rthumb 8.48917 -32.707
lclavicle 2.26366e-014 9.93923e-015
lhumerus -36.124 4.52248 85.2066
lradius 26.3142
lwrist 6.74068
lhand -11.6098 0.034753
lfingers 7.12502
lthumb 14.433 29.5129
rfemur -10.3399 -3.89694 17.7664
rtibia 35.6672
rfoot -22.0473 -23.6498
rtoes 0.0811434
lfemur -6.28916 -3.4345 -17.5761
ltibia 26.3404
lfoot -15.9608 14.587
ltoes -9.59049
70
root -0.660718 17.6921 -29.9205 1.99545 1.30374 1.09372
lowerback 5.03428 -1.91555 -4.00007
upperback -2.82432 -2.76912 1.78888
thorax -5.48996 -1.18562 4.3769
lowerneck -21.5891 0.157644 6.85377
upperneck 30.2127 0.664786 -9.01525
head 13.9456 -0.207065 -4.72532
rclavicle -3.2551e-014 -1.59028e-015
rhumerus -34.0831 -9.00841 -77.7972
rradius 26.6903
rwrist -4.64401
rhand -17.7422 -2.87335
rfingers 7.12502
rthumb 8.51913 -32.6815
lclavicle -3.2551e-014 -1.59028e-015
lhumerus -36.0524 4.57667 85.2554
lradius 26.2227
lwrist 6.75028
lhand -11.6381 0.0579496
lfingers 7.12502
lthumb 14.4057 29.538
rfemur -10.336 -3.87912 17.8275
rtibia 35.7279
rfoot -22.2296 -23.6061
rtoes 0.222163
lfemur -6.28271 -3.44912 -17.5285
ltibia 26.3723
lfoot -16.0634 14.6296
ltoes -9.69506
